<svg data-name="Layer 1" xmlns="http://www.w3.org/2000/svg" viewBox="0 0 112.7 127.4" focusable="false"><defs><style>.cls-1{fill:#766d65;}</style></defs><title>hex_logo_footer</title><polygon class="cls-1" points="53.4 3.4 39.8 11.3 39.8 48.9 53.4 41 53.4 3.4" /><polygon class="cls-1" points="58.5 124.7 72.2 116.8 72.2 79.2 58.5 87.1 58.5 124.7" /><polygon class="cls-1" points="77.3 54.5 39.8 76.2 39.8 116.8 53.4 124.7 53.4 84.4 77.3 70.6 77.3 113.8 91 106 91 22.1 77.3 14.3 77.3 54.5" /><polygon class="cls-1" points="72.2 11.3 58.5 3.4 58.5 43.7 34.6 57.5 34.6 14.3 21 22.2 21 106 34.6 113.8 34.6 73.6 72.2 51.9 72.2 11.3" /><path class="cls-1" d="M2.2,35.1V93a4.4,4.4,0,0,0,2.1,3.3L15.9,103V25.1L4.3,31.8A4.5,4.5,0,0,0,2.2,35.1Z" /><path class="cls-1" d="M107.7,31.8,96.1,25.1V103l11.6-6.7a4.5,4.5,0,0,0,2.1-3.3V35.1A4.4,4.4,0,0,0,107.7,31.8Z" /></svg>